<svg xmlns="http://www.w3.org/2000/svg" viewBox="0 0 792 792"><defs><style>.cls-1,.cls-5{fill:#44c5e6;}.cls-2,.cls-7{fill:#090030;}.cls-3{fill:none;stroke:#000;}.cls-3,.cls-4,.cls-5,.cls-6,.cls-7{stroke-miterlimit:10;}.cls-4{fill:#d3f6ff;}.cls-4,.cls-5,.cls-6,.cls-7{stroke:#231f20;}.cls-6{fill:#fff;}</style></defs><g id="Layer_4" data-name="Layer 4"><path class="cls-1" d="M561.62,561.62l-11.1,11.11,61.17,38.93L573,550.21ZM700.67,396l.17-.09-49.3-24.28-7.21-3.55L627.86,360,609.5,395.91,627.83,432l13-6.44,9.44-4.67ZM405.57,110.67,396,91.34h.13a303.86,303.86,0,0,1,215.38,89.12L550.2,219.05l11.39,11.37,11.14,11.12,38.83-61A303.87,303.87,0,0,1,701,396.19C701,564.56,564.49,701,396.13,701a303.85,303.85,0,0,1-215.64-89.37l61-38.39-11.38-11.37L219,550.79,180.32,611.5a303.87,303.87,0,0,1-89-215.31V396a303.9,303.9,0,0,1,89.28-215.36l38.56,61.25,11.37-11.4,11.12-11.13-61-38.8A303.85,303.85,0,0,1,395.82,91.34l-12.18,24.74-3.23,6.54-1.09,2.22-3.44,7L360,164.14l35.94,18.36L432,164.17l-16.34-33-3.58-7.23h0l-5.29-10.7Zm-302.81,280L92.05,396l-.18.09,14.67,7.28,7.8,3.87.19.67,1.18,4.12,1-3.06c.05-.15.1-.3.16-.46l2.81,1.39h0l19.56,9.7,4.65,2.31L164.29,432l18.21-35.94L164.32,360,131.56,376.3l-4.91,2.45-17.93,8.94ZM389.14,686.81l2.11,4.26,4.75,9.6.09.18,5.6-11.37,3.12-6.33,6.69-13.59h0L432,627.86,396.09,609.5,360,627.83Z"/><path class="cls-2" d="M164.32,360l18.18,36.12-30.68,0c1.71-5.53,3.2-10.31,4.16-13.29,2-6.35,2.79-7,8.08-7.74v-2.17h-17.3V375c6.42.77,7,1.78,5.89,6.27-.86,3.51-2.45,8.92-4.21,14.76H138.12c-2.21-6.54-4.39-13-6.56-19.75Z"/><path class="cls-2" d="M151.82,396.06c-2.5,8.06-5.46,17.75-7.9,25.86l-4.65-2.31c-2.49-7.55-5.28-15.86-7.9-23.57h6.75c1.78,5.28,3.57,10.59,5.39,16.05,1.52-4.93,3.3-10.66,4.93-16Z"/><path class="cls-2" d="M700.67,396l-50.38,24.92c-1.25-.92-1.83-2.6-1.83-5.68V397.63h11.76c7.71,0,8.56.88,9.95,7.25h3.32V396Z"/><path class="cls-2" d="M673.49,386.66V396h-25V394h11.87c8,0,8.56-1.33,9.84-7.34Z"/><path class="cls-2" d="M644.33,368.08l7.21,3.55c-2.89,0-3.08.37-3.08,2.82V396h-9.31V379.49c0-7.87-1.18-8.31-9.2-8.93v-2.48Z"/><path class="cls-2" d="M640.85,425.59l-13,6.44L609.5,395.91l29.65,0v18.5c0,7.25-.75,8.05-10.7,8.67v2.48Z"/><polygon class="cls-2" points="573.01 550.21 611.69 611.66 561.62 561.62 573.01 550.21"/><path class="cls-2" d="M611.54,180.48l-49.95,49.94L550.2,219.05l61.31-38.59Z"/><polygon class="cls-2" points="415.69 131.14 432.03 164.17 395.91 182.5 395.95 141.61 412.72 162.11 415.69 162.11 415.69 131.14"/><path class="cls-2" d="M412.18,130.81v19.12L396,130.7h0l0-39.35,9.57,19.33h-2.06v2.19c1.29.08,2.38.19,3.31.34l5.29,10.7h0C412.15,125.73,412.18,128,412.18,130.81Z"/><path class="cls-2" d="M411.5,669.55h0l-6.69,13.59-1.16-.57a11,11,0,0,0,1.1-4.91c0-6-2.78-8.8-8.72-12.28v-9.11l1,.53C405.21,661,409.81,664.4,411.5,669.55Z"/><path class="cls-2" d="M410.14,645.23l-2.74.53c-1.44-5.6-3.79-11.13-11.33-11.55v-3.1l1,0a56.9,56.9,0,0,1,11.67,1.68C409.08,636,409.44,639.49,410.14,645.23Z"/><path class="cls-2" d="M404.81,683.15l-3.12,6.33a21.9,21.9,0,0,1-5.68,1.43v-3.16a9.43,9.43,0,0,0,7.64-5.17Z"/><path class="cls-2" d="M396.09,609.5l0,21.61c-11.05.41-17.22,7.63-17.22,15.27,0,8.22,5.22,12.47,14.5,17.5,1,.52,1.85,1,2.68,1.51l0,22.36a12.26,12.26,0,0,1-1.51.09,13.73,13.73,0,0,1-5.36-1l-29.17-59Z"/><path class="cls-2" d="M396.07,634.21l0,22.07c-6.68-3.57-10.21-6.65-10.21-12.46,0-4.6,2.39-9.64,9.29-9.64C395.45,634.18,395.76,634.19,396.07,634.21Z"/><path class="cls-2" d="M396,690.91v9.76l-4.75-9.6c.52,0,1,0,1.57,0A25.41,25.41,0,0,0,396,690.91Z"/><polygon class="cls-2" points="395.96 130.69 395.96 130.7 395.95 141.61 380.41 122.62 383.64 116.08 395.96 130.69"/><path class="cls-2" d="M387.44,159.22v2.18h-19v-2.18c4.84-.39,6.71-1.56,7-5.39.24-2.49.39-6,.39-13.11v-8.89l3.44-7v16c0,7,.23,10.54.39,12.8C379.86,157.58,381.82,158.75,387.44,159.22Z"/><path class="cls-2" d="M241.47,573.28l-61,38.39-.08-.09,49.68-49.67Z"/><path class="cls-2" d="M230.49,230.49l-11.37,11.4-38.56-61.25,0,0Z"/><path class="cls-2" d="M180.6,180.6l0,0-.12-.2Z"/><path class="cls-2" d="M131.37,396h-7q1.73-5.2,3.46-10.48C128.91,388.81,130.12,392.36,131.37,396Z"/><path class="cls-2" d="M108.72,387.69l17.93-8.94c-1.78,5.72-3.68,11.53-5.58,17.28h-10C110.31,393.23,109.51,390.46,108.72,387.69Z"/><path class="cls-2" d="M121.07,396h3.26c-1.56,4.7-3.11,9.34-4.62,13.87l-2.81-1.39C118.27,404.44,119.67,400.25,121.07,396Z"/><path class="cls-1" d="M116.9,408.51c-.06.16-.11.31-.16.46l-1,3.06-1.18-4.12-.19-.67Z"/><path class="cls-2" d="M114.34,407.24l-7.8-3.87c-.72-2.45-1.45-4.91-2.18-7.36h6.76Z"/><path class="cls-2" d="M104.36,396H92.05l10.71-5.34C103.29,392.43,103.82,394.22,104.36,396Z"/><path class="cls-3" d="M611.56,180.51A303.87,303.87,0,0,1,701,396.19C701,564.56,564.49,701,396.13,701a303.85,303.85,0,0,1-215.64-89.37l-.08-.09-.09-.08a303.87,303.87,0,0,1-89-215.31V396a303.9,303.9,0,0,1,89.28-215.36l0,0,0,0A303.85,303.85,0,0,1,395.82,91.34h.31a303.86,303.86,0,0,1,215.38,89.12l0,0Z"/><polyline class="cls-3" points="412.11 123.91 415.69 131.14 432.03 164.17 395.91 182.5 359.97 164.14 375.88 131.83 379.32 124.84 380.41 122.62 383.64 116.08 395.82 91.34 395.91 91.15 396 91.33"/><polyline class="cls-3" points="396 91.34 405.57 110.67 406.82 113.2 412.11 123.9"/><polyline class="cls-3" points="700.84 395.91 700.67 396 650.29 420.92 640.85 425.59 627.83 432.03 609.5 395.91 627.86 359.97 644.33 368.08 651.54 371.63 700.84 395.91 700.85 395.91"/><polyline class="cls-3" points="404.81 683.15 401.69 689.48 396.09 700.85 396 700.67 391.25 691.07 389.14 686.81 359.97 627.83 396.09 609.5 432.03 627.86 411.5 669.55"/><path class="cls-3" d="M143.92,421.92l-4.65-2.31-19.56-9.7h0l-2.81-1.39-2.56-1.27-7.8-3.87-14.67-7.28.18-.09,10.71-5.34,6-3,17.93-8.94,4.91-2.45L164.32,360l18.18,36.12L164.29,432l-20.37-10.11"/><polygon class="cls-3" points="180.56 180.64 219.12 241.89 230.49 230.49 241.61 219.36 180.64 180.56 180.44 180.44 180.56 180.64"/><polygon class="cls-3" points="611.51 180.46 550.2 219.05 561.59 230.42 572.73 241.54 611.56 180.51 611.65 180.37 611.51 180.46"/><polygon class="cls-3" points="611.69 611.66 573.01 550.21 561.62 561.62 550.52 572.73 611.69 611.66"/><polygon class="cls-3" points="180.49 611.67 241.47 573.28 230.09 561.91 218.95 550.79 180.32 611.5 180.02 611.97 180.49 611.67"/><polyline class="cls-3" points="395.96 130.7 395.95 141.61 395.91 182.5"/><polyline class="cls-3" points="396 91.15 396 91.33 396 91.34 395.96 130.69"/><polyline class="cls-3" points="700.85 396 700.67 396 673.49 395.97 660.22 395.96 648.46 395.95 639.15 395.94 609.5 395.91"/><polyline class="cls-3" points="396 700.85 396 700.67 396.01 690.91 396.01 687.75 396.03 665.39 396.04 656.28 396.07 634.21 396.07 631.11 396.09 609.5"/><polyline class="cls-3" points="111.12 396.02 121.07 396.03 124.33 396.03 131.37 396.04 138.12 396.05 148.44 396.06 151.82 396.06 182.5 396.09"/><polyline class="cls-3" points="91.15 396 91.28 396 92.05 396 104.36 396.01 111.11 396.02"/><polyline class="cls-3" points="180.02 611.97 180.41 611.58 230.09 561.91 230.72 561.28"/><polyline class="cls-3" points="611.69 611.66 561.62 561.62 557.38 557.38"/><polyline class="cls-3" points="611.65 180.37 611.54 180.48 561.59 230.42 558.38 233.62"/><polyline class="cls-3" points="180.44 180.44 180.6 180.6 230.49 230.49 231.72 231.72"/></g><g id="Layer_1" data-name="Layer 1"><circle class="cls-4" cx="396" cy="396" r="234.6"/><polyline class="cls-5" points="484.02 443.33 534.92 349.61 199.83 455.51 267.69 546.2"/><path class="cls-6" d="M360,177.09l3.61,212.17s82-55.46,157.52-51.44Z"/><path class="cls-6" d="M355.3,180.37l-3.57,212.29S265.21,404.26,234,439Z"/></g><g id="Layer_5" data-name="Layer 5"><path class="cls-7" d="M624.61,448.9l-74.09,2.51s-43.07-7.92,0-10.49c0,0-7.54-12.54-19.14-9.14s-32.13,15.48-29.47-21.4c0,0-11.81-2.26-25.08,28.2,0,0-3.35-18.25-26.1-7.7,0,0,10.41,2.6.47,20.53,0,0-8.58,16.42-23.22,2.45s-87.34,9.69-87.34,9.69,30.79,2.57,0,13.16c0,0-4.45,1.72-13.84,0s-150.31,1.9-150.31,1.9S225.3,625.55,396,630.6c0,0,150.26,4.27,216.44-145.82a221,221,0,0,0,12.17-35.88Z"/></g></svg>